<?xml version="1.0" standalone="no"?>
<!DOCTYPE svg PUBLIC "-//W3C//DTD SVG 1.1//EN" "http://www.w3.org/Graphics/SVG/1.1/DTD/svg11.dtd" >
<svg xmlns="http://www.w3.org/2000/svg">
<metadata>Generated by IcoMoon</metadata>
<defs>
<font id="pe-glyphs" horiz-adv-x="1024">
<font-face units-per-em="1024" ascent="960" descent="-64" />
<missing-glyph horiz-adv-x="1024" />
<glyph unicode="&#x20;" horiz-adv-x="512" d="" />
<glyph unicode="&#xe900;" glyph-name="pe-bag-empty" horiz-adv-x="939" d="M271.445 785.067c18.091 87.509 99.84 153.6 197.888 153.6s179.797-66.091 197.888-153.6h262.912v-870.4h-921.6v870.4h262.912zM330.624 785.067h277.419c-16.939 57.259-72.619 99.243-138.709 99.243s-121.771-41.984-138.709-99.243zM267.733 733.867h-208v-768h806.4v768h-195.2v-108.075h-57.6v108.075h-288v-108.075h-57.6v108.075z" />
<glyph unicode="&#xe901;" glyph-name="pe-bag-full" horiz-adv-x="939" d="M271.445 785.067c18.091 87.509 99.84 153.6 197.888 153.6s179.797-66.091 197.888-153.6h262.912v-870.4h-921.6v870.4h262.912zM330.624 785.067h277.419c-16.939 57.259-72.619 99.243-138.709 99.243s-121.771-41.984-138.709-99.243z" />
<glyph unicode="&#xe902;" glyph-name="pe-bird" horiz-adv-x="1506" d="M1467.633 770.912c1.148-2.674 1.815-5.786 1.815-9.055 0-6.484-2.627-12.355-6.875-16.606l-205.402-205.402v-59.753c0-280.215-227.991-508.205-508.205-508.205-272.264 0-494.652 215.462-507 484.653h-217.871l246.543 246.603c38.387 38.586 91.524 62.465 150.239 62.465 0.208 0 0.415 0 0.622-0.001h-0.032c56.983 0 110.532-22.167 150.829-62.464l202.511-202.511 277.926 277.865c4.232 4.242 10.083 6.867 16.548 6.867 0.027 0 0.054 0 0.082 0h376.527c9.517 0 18.131-5.662 21.745-14.456zM1217.054 566.292l172.032 172.032h-309.971l-416.708-416.708c-4.262-4.262-10.151-6.899-16.655-6.899-13.008 0-23.554 10.545-23.554 23.554 0 6.504 2.636 12.393 6.899 16.655l112.459 112.399-202.571 202.571c-62.765 62.765-172.273 62.765-235.038 0l-166.249-166.249h152.757v-47.104h-1.446c12.348-243.29 213.594-437.609 459.957-437.609 254.313 0 461.161 206.908 461.161 461.161v12.71l-124.085-124.085c-4.256-4.277-10.146-6.925-16.655-6.925s-12.4 2.647-16.654 6.924l-0.001 0.001c-4.259 4.253-6.894 10.131-6.894 16.625s2.635 12.372 6.894 16.625v0l164.262 164.262zM739.87 597.133c-12.98 0.080-23.471 10.621-23.471 23.612 0 6.455 2.59 12.306 6.789 16.568l282.44 282.44c4.283 4.242 10.178 6.864 16.685 6.867h329.488c0.026 0 0.057 0 0.088 0 12.974 0 23.492-10.518 23.492-23.492 0-6.524-2.659-12.427-6.953-16.684l-0.002-0.002-47.044-47.104c-4.12-3.593-9.545-5.783-15.481-5.783-13.041 0-23.612 10.572-23.612 23.612 0 5.936 2.191 11.361 5.807 15.509l-0.024-0.028 6.867 6.927h-262.927l-275.456-275.576c-4.268-4.244-10.151-6.867-16.647-6.867-0.013 0-0.027 0-0.040 0h0.002zM395.324 658.211c26.002-0.017 47.074-21.1 47.074-47.104 0-26.015-21.089-47.104-47.104-47.104-0.011 0-0.021 0-0.032 0h0.002c-26.015 0-47.104 21.089-47.104 47.104s21.089 47.104 47.104 47.104v0z" />
<glyph unicode="&#xe903;" glyph-name="pe-box" d="M400.291 678.012h-307.2v-670.255h837.818v670.255h-307.2v-167.564c0-15.424-12.503-27.927-27.927-27.927v0h-167.564c-15.424 0-27.927 12.503-27.927 27.927v0 167.564zM986.438 723.487c0.207-1 0.326-2.15 0.326-3.327 0-0.041 0-0.082 0-0.124v0.006-748.963c-0.053-10.602-8.66-19.177-19.27-19.177-0.033 0-0.066 0-0.098 0h-910.796c-0.028 0-0.061 0-0.093 0-10.61 0-19.217 8.575-19.27 19.172v748.921c0.023 1.101 0.141 2.16 0.345 3.188l-0.019-0.116 0.047 0.605c0.439 2.143 1.198 4.044 2.233 5.76l-0.045-0.081c0.787 1.413 1.666 2.633 2.668 3.741l-0.015-0.017 0.279 0.279 186.554 190.185c3.531 3.591 8.441 5.817 13.87 5.818h533.551c0.001 0 0.001 0 0.002 0 5.352 0 10.201-2.15 13.731-5.634l-0.002 0.002 190.697-190.185c0.093-0.047 0.093-0.14 0.14-0.233 1.363-1.396 2.514-3.008 3.395-4.778l0.049-0.11c0.761-1.425 1.358-3.077 1.703-4.819l0.019-0.115zM623.709 873.503v-139.636h279.273l-141.964 139.636h-137.309zM259.584 873.503l-138.566-139.636h279.273v139.636h-140.707zM567.855 733.867v139.636h-111.709v-139.636h111.709zM456.145 678.012v-139.636h111.709v139.636h-111.709zM623.709 259.103h55.855v-55.855h-55.855v55.855zM735.418 259.103h111.709v-55.855h-111.709v55.855zM623.709 147.394h223.418v-55.855h-223.418v55.855z" />
<glyph unicode="&#xe904;" glyph-name="pe-checkmark" horiz-adv-x="1365" d="M485.433-56.604c-15.815-15.644-38.229-28.729-58.027-28.729-19.74 0-42.098 13.71-58.596 29.412l-368.811 365.682 117.191 116.338 310.898-308.281 821.988 820.85 115.257-118.215-879.9-877.056z" />
<glyph unicode="&#xe905;" glyph-name="pe-chevron-down" horiz-adv-x="1536" d="M1442.88 887.467l93.12-99.328-768-822.272-768 822.272 92.608 99.328 675.392-722.432z" />
<glyph unicode="&#xe906;" glyph-name="pe-chevron-left" horiz-adv-x="683" d="M648.533-23.253l-66.219-62.080-548.181 512 548.181 512 66.219-61.739-481.621-450.261z" />
<glyph unicode="&#xe907;" glyph-name="pe-chevron-right" horiz-adv-x="683" d="M34.133 876.587l66.219 62.080 548.181-512-548.181-512-66.219 61.739 481.621 450.261z" />
<glyph unicode="&#xe908;" glyph-name="pe-chevron-up" horiz-adv-x="1536" d="M1442.88-34.133l93.12 99.328-768 822.272-768-822.272 92.608-99.328 675.392 722.432z" />
<glyph unicode="&#xe909;" glyph-name="pe-cross" d="M938.624 913.067l-427.648-427.136-425.6 425.088-59.776-59.776 425.6-424.576-425.6-425.088 59.776-59.264 425.6 424.576 427.648-426.624 59.776 59.264-427.605 427.136 427.605 426.624z" />
<glyph unicode="&#xe90a;" glyph-name="pe-diamond" horiz-adv-x="1229" d="M1143.962 612.933l-123.238 250.829-108.749-250.829h231.987zM1113.702 550.059h-228.966l-196.762-453.734 425.728 453.734zM115.046 550.059l425.779-453.734-196.762 453.734h-229.018zM84.787 612.933h231.987l-108.749 250.726-123.238-250.726zM1199.514 550.264v-0.205h-0.205l-584.909-623.36-614.4 654.797 175.514 357.171h877.67l175.616-357.171-29.286-31.232zM844.186 612.933l114.022 262.861h-687.616l113.92-262.861h459.674zM816.947 550.059h-405.094l202.547-467.046 202.547 467.046z" />
<glyph unicode="&#xe90b;" glyph-name="pe-exclamation" d="M512 938.667c-282.837 0-512-229.163-512-512s229.163-512 512-512 512 229.163 512 512-229.163 512-512 512zM512 119.467c-28.331 0-51.2 22.784-51.2 51.371 0 28.245 22.869 51.029 51.2 51.029s51.2-22.784 51.2-51.029c0-28.587-22.869-51.371-51.2-51.371zM460.8 733.867h102.4v-435.2h-102.4v435.2z" />
<glyph unicode="&#xe90c;" glyph-name="pe-eye" horiz-adv-x="1067" d="M704.768 23.040c52.632 49.164 85.452 118.963 85.504 196.428v0.010c0 77.483-33.024 147.243-85.504 196.48 134.613-58.027 237.44-161.024 270.208-196.48-32.768-35.413-135.595-138.411-270.208-196.48zM66.133 219.478c32.725 35.456 135.552 138.411 270.165 196.48-52.655-49.165-85.482-118.987-85.504-196.476v-0.004c0.039-77.49 32.862-147.306 85.349-196.337l0.155-0.143c-134.613 58.069-237.44 161.024-270.165 196.48zM520.533-11.861c-127.706 0.146-231.193 103.632-231.339 231.325v0.014c0.17 127.696 103.642 231.169 231.322 231.339h0.017c127.696-0.17 231.169-103.642 231.339-231.322v-0.017c-0.146-127.706-103.632-231.193-231.325-231.339h-0.014zM520.533 495.531c-271.061 0-485.888-252.971-494.891-263.68l-10.325-12.373 10.325-12.331c8.96-10.752 223.829-263.68 494.891-263.68s485.888 252.928 494.891 263.68l10.325 12.373-10.325 12.288c-8.96 10.752-223.829 263.723-494.891 263.723zM562.901 370.091c66.554-19.037 114.449-79.33 114.449-150.811 0-86.48-70.106-156.587-156.587-156.587-71.468 0-131.753 47.879-150.53 113.311l-0.271 1.105c13.483-3.755 27.605-5.973 42.24-5.973 86.528 0 156.672 70.144 156.672 156.672v0c0 14.635-2.219 28.757-5.973 42.24zM520.533 584.363c-10.604 0-19.2 8.596-19.2 19.2v307.371c0 10.604 8.596 19.2 19.2 19.2s19.2-8.596 19.2-19.2v0-307.328c0-10.604-8.596-19.2-19.2-19.2v0zM1026.901 764.246c3.482-3.476 5.636-8.281 5.636-13.589s-2.154-10.114-5.636-13.589v0l-217.301-217.301c-3.515-3.764-8.507-6.111-14.047-6.111-10.604 0-19.2 8.596-19.2 19.2 0 5.54 2.346 10.532 6.1 14.037l0.011 0.010 217.301 217.344c3.474 3.469 8.27 5.615 13.568 5.615s10.094-2.146 13.568-5.615v0zM245.035 514.134c-5.293 0.003-10.086 2.137-13.569 5.591l-217.3 217.386c-3.481 3.476-5.635 8.281-5.635 13.589 0 10.606 8.598 19.203 19.203 19.203 5.297 0 10.094-2.145 13.568-5.614v0l217.344-217.301c3.449-3.483 5.58-8.277 5.58-13.568 0-10.618-8.581-19.232-19.186-19.285h-0.005z" />
<glyph unicode="&#xe90d;" glyph-name="pe-flower" horiz-adv-x="939" d="M496.427 421.76v-507.093h-54.187v507.093l-1.195-0.597c-30.763-14.848-62.592-29.653-93.867-43.52-11.947-5.291-23.595-10.368-34.901-15.147-75.392-31.957-129.707-49.963-160.64-49.963-83.797 0-151.637 68.437-151.637 152.875 0 84.48 67.84 152.917 151.637 152.917 30.933 0 85.248-18.048 160.64-49.963 52.817-22.128 85.449-37.072 117.77-52.561l-18.57 8.017c-7.285 13.495-22.139 46.395-36.436 79.591l-7.809 20.377c-31.701 76.032-49.579 130.773-49.579 162.005 0.043 84.48 67.925 152.875 151.68 152.875s151.637-68.437 151.637-152.875c0-31.232-17.92-85.973-49.579-162.005-4.736-11.392-9.771-23.125-14.976-35.157-9.387-21.547-19.2-43.307-29.184-64.853 13.757 7.483 46.374 22.44 79.291 36.84l19.866 7.746c75.392 31.915 129.707 49.92 160.64 49.92 83.797 0.043 151.637-68.352 151.637-152.832s-67.84-152.875-151.637-152.875c-30.933 0-85.248 18.005-160.64 49.963-26.478 10.77-37.956 15.859-49.384 21.038l14.526-5.891c-51.548 22.394-82.396 36.972-112.974 52.015l19.107-8.495-1.28 0.597zM325.333 503.211c-11.648 5.163-23.040 10.112-34.048 14.763-67.84 28.757-118.955 45.696-139.648 45.696-53.868-0.218-97.452-43.936-97.452-97.834 0-0.15 0-0.3 0.001-0.451v0.023c-0.001-0.127-0.001-0.277-0.001-0.427 0-53.898 43.584-97.616 97.431-97.834h0.021c20.693 0 71.808 16.981 139.648 45.696 58.718 24.761 96.842 42.389 134.544 60.749l-18.619-8.184c-8.091 4.833-34.987 17.497-62.089 29.788l-19.745 8.015zM506.795 610.603c5.12 11.776 10.027 23.211 14.677 34.347 28.501 68.395 45.312 119.936 45.312 140.8 0.001 0.14 0.001 0.305 0.001 0.47 0 53.898-43.584 97.616-97.431 97.834h-0.021c-53.868-0.218-97.452-43.936-97.452-97.834 0-0.15 0-0.3 0.001-0.451v0.023c0-20.907 16.811-72.448 45.312-140.843 24.7-59.6 42.199-98.068 60.43-136.117l-8.291 19.211c12.8 27.221 25.515 55.125 37.461 82.56zM613.291 427.648c11.691-5.205 23.040-10.112 34.091-14.805 67.84-28.715 118.955-45.653 139.648-45.653 53.868 0.218 97.451 43.936 97.451 97.834 0 0.135 0 0.27-0.001 0.406v-0.021c0.001 0.127 0.001 0.277 0.001 0.427 0 53.898-43.584 97.616-97.431 97.834h-0.021c-20.693 0-71.808-16.939-139.648-45.653-58.739-24.771-96.865-42.399-134.568-60.76l18.643 8.194c27.008-12.928 54.656-25.771 81.835-37.803z" />
<glyph unicode="&#xe90e;" glyph-name="pe-leaf" horiz-adv-x="1152" d="M603.968 513.579c13.632 5.632-243.456-18.432-507.392-273.536 0 0-63.616 438.656 451.072 547.2 368.128 77.632 592 42.112 592 99.52 0 23.296 107.136-513.792-310.208-646.72-417.152-133.12-672.128-102.72-789.312-273.664-10.304-15.040 8.832 318.336 563.84 547.2z" />
<glyph unicode="&#xe90f;" glyph-name="pe-lion" horiz-adv-x="1113" d="M966.389 845.127l119.942-134.322v-6.233c0-218.335-91.848-428.655-251.904-577.046l-282.357-193.491-280.487 191.978c-155.908 144.374-253.317 350.002-253.774 578.387v6.362l119.942 134.411c46.626 51.993 114.004 84.562 188.989 84.591h0.005c71.783-0.142 136.574-29.961 182.778-77.838l0.072-0.075 42.474-44.299 42.474 44.299c46.27 47.929 111.045 77.732 182.781 77.868h0.025c72.125 0 141.045-30.809 189.039-84.591zM892.483 238.607l20.035 26.891c86.69 120.295 139.232 270.252 140.864 432.399l0.003 0.397-111.527 124.928c-40.575 45.272-99.229 73.628-164.506 73.639h-0.002c-62.466-0.138-118.844-26.086-159.058-67.741l-0.063-0.065-66.159-69.009-66.204 69.009c-40.264 41.706-96.63 67.64-159.053 67.762h-0.023c-62.776 0-122.702-26.802-164.508-73.639l-111.527-124.839c1.64-162.524 54.252-312.444 142.577-434.895l-1.532 2.232 20.124-26.847c7.524-9.572 15.271-18.966 23.285-28.182l22.261-24.487c11.175-11.798 22.617-23.418 34.638-34.549l260.007-177.731 261.877 179.245c11.398 10.596 22.261 21.593 32.946 32.857l22.261 24.442c8.014 9.216 15.805 18.566 23.329 28.182zM773.521 758.443c84.591-47.594 95.098-112.506 89.043-200.036-9.28-97.474-57.63-182.117-128.999-239.17l-0.692-0.535v-8.37c0-36.33-19.946-67.762-49.286-84.903v-15.182c0-35.439-28.85-64.289-64.289-64.289h-134.456c-35.496 0.025-64.264 28.793-64.289 64.287v15.14c-29.609 17.242-49.22 48.792-49.33 84.932v8.386c-72.062 57.588-120.412 142.232-129.584 238.305l-0.108 1.4c-6.678 87.53 7.969 157.696 88.554 200.57 16.956 7.375 36.708 11.665 57.462 11.665 0.052 0 0.105 0 0.157 0h-0.008c25.199 0 49.864-10.24 67.718-28.049l96.612-96.657 96.657 96.612c17.542 17.542 56.81 26.223 65.091 27.737 21.37 0 41.539-4.23 59.748-11.843zM650.685 210.247v3.117c-4.893-0.963-10.562-1.558-16.353-1.646l-0.076-0.001h-6.812l-75.375 75.375-75.375-75.375h-6.812c-5.892 0.103-11.573 0.714-17.086 1.792l0.613-0.1v-3.161c0-17.363 14.113-31.432 31.432-31.432h134.456c17.363 0 31.388 14.113 31.388 31.432zM831.533 589.795v32.902c-0.093 62.939-50.634 114.042-113.347 115.043l-0.094 0.001c-15.226-3.295-38.645-10.863-46.169-18.387l-119.853-119.942-119.897 119.942c-11.428 11.332-27.152 18.347-44.514 18.387h-0.008c-63.507-0.076-114.968-51.538-115.044-115.037v-32.909c0.253-101.77 48.908-192.124 124.153-249.291l0.775-0.565 6.589-4.897v-24.71c0.059-34.008 25.872-61.969 58.974-65.423l0.284-0.024 72.259 72.259v0.623l-57.611 36.686c-16.417 10.637-27.126 28.866-27.126 49.596 0 10.333 2.66 20.044 7.334 28.486l-0.153-0.302 11.798 21.504v75.375c-4.66-3.048-10.333-4.919-16.432-5.075l-0.041-0.001c-18.152 0.025-32.857 14.746-32.857 32.902v0c0 10.374 5.075 19.233 12.6 25.244l-31.744 28.227c-3.395 3.024-5.523 7.407-5.523 12.288 0 9.075 7.356 16.431 16.431 16.431 4.194 0 8.021-1.571 10.924-4.157l-0.016 0.014 73.995-65.759c3.39-3.027 5.516-7.409 5.521-12.287v-103.202h98.66v103.201c0.005 4.879 2.131 9.261 5.505 12.274l0.016 0.014 73.951 65.759c2.887 2.572 6.714 4.143 10.908 4.143 9.075 0 16.431-7.356 16.431-16.431 0-4.881-2.128-9.264-5.507-12.274l-0.016-0.014-31.699-28.227c7.607-5.891 12.487-14.986 12.599-25.225v-0.018c0-18.165-14.737-32.902-32.902-32.902-6.125 0.165-11.781 2.035-16.551 5.15l0.122-0.075v-75.375l11.798-21.504c4.52-8.14 7.18-17.851 7.18-28.184 0-20.73-10.709-38.959-26.897-49.456l-0.23-0.139-57.611-36.686v-0.623l72.214-72.214c33.405 3.456 59.242 31.425 59.303 65.441v24.627l6.589 4.897c76.032 57.741 124.69 148.114 124.928 249.861v0.039z" />
<glyph unicode="&#xe910;" glyph-name="pe-mail" horiz-adv-x="1325" d="M261.722 818.196l400.866-302.622 400.866 302.622h-801.732zM1171.637 765.43l-509.048-384.301-509.048 384.301v-742.34h1018.037v742.34zM135.951 926.62h1053.274c48.489 0 87.763-40.478 87.763-90.353v-831.247c0-49.875-39.273-90.353-87.763-90.353h-1053.274c-48.489 0-87.763 40.478-87.763 90.353v831.247c0 49.875 39.273 90.353 87.763 90.353z" />
<glyph unicode="&#xe911;" glyph-name="pe-minus" d="M0 477.867h1024v-102.4h-1024v102.4z" />
<glyph unicode="&#xe912;" glyph-name="pe-phone" horiz-adv-x="683" d="M119.467 938.667h443.733c47.128 0 85.333-38.205 85.333-85.333v0-853.333c0-47.128-38.205-85.333-85.333-85.333v0h-443.733c-47.128 0-85.333 38.205-85.333 85.333v0 853.333c0 47.128 38.205 85.333 85.333 85.333v0zM85.333 836.267v-819.2h512v819.2h-512z" />
<glyph unicode="&#xe913;" glyph-name="pe-play" horiz-adv-x="853" d="M17.067 938.667v-1024l819.2 512z" />
<glyph unicode="&#xe914;" glyph-name="pe-plus" d="M460.8 477.867v460.8h102.4v-460.8h460.8v-102.4h-460.8v-460.8h-102.4v460.8h-460.8v102.4h460.8z" />
<glyph unicode="&#xe915;" glyph-name="pe-question" d="M512 938.667c-282.837 0-512-229.163-512-512s229.163-512 512-512 512 229.163 512 512-229.163 512-512 512zM522.581 155.904c-0.063 0-0.138-0.001-0.213-0.001-22.975 0-41.6 18.625-41.6 41.6 0 0 0 0 0 0.001v0c0 22.869 18.688 41.387 41.813 41.387s41.813-18.517 41.813-41.387c0 0 0 0 0-0.001 0-22.975-18.625-41.6-41.6-41.6-0.075 0-0.15 0-0.225 0.001h0.012zM605.781 439.723c-56.107-55.381-54.613-67.456-57.344-131.2h-46.763c2.688 70.144 18.432 107.52 74.069 158.72 27.093 25.387 47.787 55.893 47.787 93.824 0 58.112-47.787 98.219-104.875 98.219-79.787 0-119.381-40.363-117.931-114.219h-46.251c0.725 103.381 60.032 152.875 166.4 152.875 81.237 0 148.651-50.219 148.651-134.4 0-53.931-26.325-89.131-63.744-123.819z" />
<glyph unicode="&#xe916;" glyph-name="pe-quote" horiz-adv-x="1195" d="M298.923-34.133c-82.005 0-146.688 27.989-193.963 83.968-47.189 55.893-70.827 127.659-70.827 215.552 0 89.941 26.709 198.571 80.213 325.888 53.419 127.232 118.613 225.963 195.755 296.192l100.693-65.792c-42.24-48.299-82.005-116.309-119.296-204.117-37.291-87.637-55.979-174.421-55.979-260.011 0-26.368 1.28-46.080 3.755-59.221 34.816 13.141 65.877 19.712 93.269 19.712 49.664 0 90.709-15.36 123.051-46.080s48.469-69.12 48.469-115.2c0-59.221-19.883-105.813-59.733-139.947-39.68-33.963-88.149-50.944-145.408-50.944zM955.392-34.133c-82.091 0-146.773 27.989-193.963 83.968-47.189 55.893-70.827 127.744-70.827 215.552 0 89.941 26.709 198.571 80.213 325.888 53.419 127.232 118.613 225.963 195.755 296.192l100.693-65.792c-42.24-48.299-82.005-116.309-119.296-204.117-37.291-87.723-55.979-174.421-55.979-260.011 0-26.368 1.28-46.080 3.755-59.221 27.458 12.013 59.416 19.215 92.998 19.71l0.186 0.002c49.749 0 90.795-15.36 123.136-46.080s48.469-69.12 48.469-115.2c0-59.221-19.883-105.813-59.733-139.947-39.765-33.963-88.235-50.944-145.408-50.944z" />
<glyph unicode="&#xe917;" glyph-name="pe-recycle" horiz-adv-x="1365" d="M180.508 423.652l-138.012-135.339-42.496 41.7 210.148 206.165 210.034-206.222-42.496-41.7-136.932 134.428c12.174-229.035 205.369-411.136 441.913-411.136 174.308 0 330.126 99.783 401.977 252.359l54.613-24.747c-81.692-173.284-258.617-286.549-456.59-286.549-270.052 0-490.439 209.010-502.158 471.040zM1184.597 472.292l138.24 135.623 42.496-41.756-210.148-206.108-210.034 206.108 42.496 41.756 136.647-134.087c-14.791 226.588-206.848 405.845-441.628 405.845-174.308 0-330.183-99.726-401.977-252.302l-54.613 24.747c81.636 173.227 258.617 286.549 456.59 286.549 268.516 0 487.822-206.45 501.931-466.375z" />
<glyph unicode="&#xe918;" glyph-name="pe-search" d="M687.659 180.907c-68.622-54.261-156.403-87.040-251.839-87.040-0.218 0-0.435 0-0.653 0.001h0.034c-226.216 0-409.6 183.384-409.6 409.6s183.384 409.6 409.6 409.6c226.216 0 409.6-183.384 409.6-409.6v0c0-0.184 0-0.402 0-0.619 0-95.437-32.78-183.217-87.694-252.697l0.654 0.858 264.064-264.021-70.144-70.144-264.021 264.064zM435.2 164.267c187.335 0 339.2 151.865 339.2 339.2s-151.865 339.2-339.2 339.2v0c-187.335 0-339.2-151.865-339.2-339.2s151.865-339.2 339.2-339.2v0z" />
<glyph unicode="&#xe919;" glyph-name="pe-share" horiz-adv-x="1186" d="M894.653 41.212h-756.682v544.606h174.296s42.792 59.715 129.455 115.766h-361.957c-32.121 0-58.206-25.762-58.206-57.883v-660.372c0-31.798 26.085-57.883 58.206-57.883h873.095c32.121 0 58.206 25.762 58.206 57.883v330.375l-116.413-95.178v-177.314zM797.642 507.617v-193.644l388.042 289.415-388.042 292.163v-180.925c-469.315 0-485.053-497.987-485.053-497.987 132.797 216.765 230.4 291.032 485.053 291.032z" />
<glyph unicode="&#xe91a;" glyph-name="pe-smiley" d="M512-85.333c-282.795 0-512 229.248-512 512s229.205 512 512 512 512-229.248 512-512-229.205-512-512-512zM512-31.445c252.928 0 457.984 205.099 457.984 458.112s-205.056 458.112-457.984 458.112-457.984-205.099-457.984-458.112 205.056-458.112 457.984-458.112zM264.32 192c-5.175 4.923-8.395 11.861-8.395 19.551 0 14.893 12.073 26.965 26.965 26.965 7.679 0 14.609-3.21 19.52-8.362l0.010-0.011c53.629-53.617 127.71-86.779 209.536-86.779 81.848 0 155.946 33.179 209.578 86.821v0c4.886 4.886 11.637 7.909 19.093 7.909 14.913 0 27.002-12.089 27.002-27.002 0-7.456-3.022-14.207-7.909-19.093v0c-63.391-63.395-150.967-102.605-247.701-102.605s-184.31 39.211-247.701 102.605v0z" />
<glyph unicode="&#xe91b;" glyph-name="pe-social-facebook" d="M967.339 938.667c15.531 0 28.9-5.575 39.993-16.668s16.668-24.462 16.668-39.993v-910.677c0.003-0.218 0.005-0.476 0.005-0.734 0-15.407-6.387-29.323-16.658-39.244l-0.016-0.015c-9.936-10.286-23.852-16.673-39.259-16.673-0.258 0-0.516 0.002-0.773 0.005h-260.626v396.686h132.665l19.968 154.624h-152.633v98.702c0 24.86 5.234 43.52 15.644 55.979 10.468 12.459 30.777 18.66 61.042 18.66l81.351 0.683v138.012c-28.046 3.982-67.584 5.973-118.727 5.973-60.416 0-108.772-17.749-145.010-53.305-36.181-35.556-54.329-85.788-54.329-150.699v-114.005h-133.291v-154.624h133.291v-396.686h-489.984c-0.218-0.003-0.476-0.005-0.734-0.005-15.407 0-29.323 6.387-39.244 16.658l-0.015 0.016c-10.286 9.936-16.673 23.852-16.673 39.259 0 0.258 0.002 0.516 0.005 0.773v-0.039 910.677c0 15.531 5.575 28.9 16.668 39.993 9.936 10.286 23.852 16.673 39.259 16.673 0.258 0 0.516-0.002 0.773-0.005h910.638z" />
<glyph unicode="&#xe91c;" glyph-name="pe-social-google" horiz-adv-x="1536" d="M958.72 397.867c0-273.6-185.856-470.4-469.568-470.4-268.992 0-489.152 216-489.152 480s220.16 480 489.152 480c132.096 0 244.608-48 327.744-124.8l-132.032-124.8c-34.24 33.6-97.856 72-195.712 72-166.272 0-303.296-134.4-303.296-302.4s136.96-302.4 303.36-302.4c195.584 0 264.064 139.2 278.784 206.4h-278.848v163.2h459.84c4.864-24 9.792-48 9.792-76.8zM1536 474.667v-139.2h-141.888v-139.2h-141.824v139.2h-141.888v139.2h141.888v139.2h141.824v-139.2h141.888z" />
<glyph unicode="&#xe91d;" glyph-name="pe-social-instagram" d="M675.84 426.667c0 45.21-15.974 83.814-47.974 115.814-28.731 29.645-68.917 48.045-113.399 48.045-0.867 0-1.733-0.007-2.596-0.021l0.13 0.002c-45.21 0-83.866-16.026-115.866-48.026-29.615-28.727-47.994-68.892-47.994-113.35 0-0.867 0.007-1.731 0.021-2.595l-0.002 0.13c0-45.21 15.974-83.814 47.974-115.814s70.656-48.026 115.866-48.026 83.866 16.026 115.866 48.026 47.974 70.605 47.974 115.814zM764.16 426.667c0-69.99-24.576-129.536-73.626-178.586s-108.544-73.574-178.534-73.574-129.536 24.576-178.534 73.574c-49.101 49.101-73.626 108.595-73.626 178.586s24.576 129.536 73.626 178.586c48.998 49.050 108.544 73.574 178.534 73.574s129.536-24.576 178.534-73.574c49.101-49.101 73.626-108.595 73.626-178.586zM833.28 689.067c0-16.23-5.734-30.106-17.254-41.626-10.325-10.651-24.765-17.261-40.749-17.261-0.308 0-0.616 0.002-0.923 0.007l0.046-0.001c-16.23 0-30.054 5.786-41.626 17.306-10.65 10.325-17.26 24.765-17.26 40.748 0 0.29 0.002 0.58 0.007 0.87l-0.001-0.044c0 16.23 5.734 30.106 17.306 41.626 11.52 11.469 25.344 17.254 41.574 17.254s30.054-5.786 41.626-17.254c11.52-11.52 17.254-25.395 17.254-41.626zM512 829.867l-48.947 0.307c-10.035 0.105-21.894 0.164-33.766 0.164s-23.732-0.060-35.576-0.179l1.81 0.014c-15.36-0.205-35.942-0.819-61.747-1.894s-47.821-3.226-65.946-6.4c-18.125-3.226-33.382-7.168-45.773-11.827-21.959-8.877-40.695-21.467-56.313-37.164l-0.007-0.007c-15.665-15.63-28.222-34.366-36.67-55.207l-0.399-1.113c-4.71-12.339-8.704-27.648-11.878-45.722-3.332-19.268-5.63-42.007-6.379-65.136l-0.021-0.809c-1.024-25.805-1.69-46.387-1.894-61.747s-0.205-37.888 0-67.533l0.307-48.947-0.307-48.947c-0.205-29.696-0.205-52.173 0-67.533s0.819-35.942 1.894-61.747c1.075-25.805 3.226-47.821 6.4-65.946 3.226-18.125 7.168-33.382 11.878-45.722 8.499-21.35 20.89-40.141 37.069-56.32 16.23-16.23 35.021-28.621 56.32-37.171 12.39-4.659 27.648-8.602 45.773-11.776 18.125-3.226 40.141-5.376 65.946-6.451 25.805-1.024 46.387-1.69 61.747-1.894s37.888-0.205 67.533 0l48.947 0.307 48.947-0.307c29.696-0.205 52.173-0.205 67.533 0s35.942 0.819 61.747 1.894c25.805 1.075 47.821 3.226 65.946 6.4 18.125 3.226 33.382 7.168 45.773 11.827 21.959 8.877 40.695 21.467 56.313 37.164l0.007 0.007c16.179 16.179 28.57 34.97 37.069 56.32 4.71 12.339 8.704 27.648 11.878 45.722 3.174 18.125 5.325 40.141 6.4 65.946 1.024 25.805 1.69 46.387 1.894 61.747s0.205 37.888 0 67.533l-0.307 48.947 0.307 48.947c0.205 29.696 0.205 52.173 0 67.533s-0.819 35.942-1.894 61.747c-0.77 23.939-3.068 46.677-6.814 68.924l0.414-2.978c-2.881 17.379-7.009 32.758-12.453 47.5l0.575-1.778c-8.847 21.954-21.404 40.69-37.066 56.317l-0.003 0.003c-15.625 15.704-34.361 28.295-55.209 36.772l-1.111 0.399c-12.984 4.842-28.385 8.937-44.279 11.572l-1.494 0.204c-19.257 3.346-41.992 5.662-65.118 6.429l-0.827 0.022c-25.805 1.024-46.387 1.69-61.747 1.894s-37.888 0.205-67.533 0l-48.947-0.307zM1003.52 426.667c0-97.69-1.024-165.376-3.174-202.906-4.301-88.73-30.72-157.389-79.36-206.080-48.64-48.64-117.35-75.059-206.131-79.36-37.53-2.099-105.165-3.174-202.854-3.174s-165.376 1.024-202.854 3.226c-88.781 4.25-157.491 30.72-206.080 79.36-48.64 48.64-75.11 117.299-79.36 206.029-2.202 37.581-3.226 105.216-3.226 202.906s1.024 165.376 3.174 202.906c4.301 88.73 30.72 157.389 79.36 206.080 48.64 48.64 117.35 75.059 206.131 79.36 37.478 2.048 105.165 3.174 202.854 3.174s165.376-1.024 202.854-3.226c88.781-4.25 157.491-30.72 206.080-79.36 48.64-48.64 75.11-117.299 79.36-206.029 2.15-37.581 3.226-105.216 3.226-202.906z" />
<glyph unicode="&#xe91e;" glyph-name="pe-social-pinterest" d="M1003.52 426.667c0-89.19-22.016-171.418-65.946-246.733-43.678-74.671-104.17-135.164-176.536-177.592l-2.306-1.25c-75.315-44.032-157.542-65.946-246.733-65.946-0.047 0-0.102 0-0.158 0-49.701 0-97.655 7.485-142.794 21.39l3.432-0.91c25.19 39.68 41.83 74.65 49.92 104.96 3.84 14.49 15.36 59.494 34.56 135.066 8.55-16.691 24.064-31.078 46.694-43.213 22.63-12.186 46.95-18.278 73.011-18.278 51.61 0 97.69 14.643 138.24 43.878 40.499 29.184 71.885 69.427 94.054 120.627s33.28 108.8 33.28 172.8c0 48.64-12.698 94.31-38.093 136.96s-62.157 77.466-110.387 104.346c-48.23 26.88-102.605 40.294-163.226 40.294-44.8 0-86.579-6.144-125.44-18.586-38.81-12.339-71.782-28.774-98.816-49.254-27.136-20.48-50.381-44.032-69.786-70.707-19.456-26.675-33.741-54.272-42.906-82.893-8.626-25.598-13.641-55.080-13.722-85.722v-0.038c0-44.39 8.499-83.456 25.6-117.094 17.050-33.741 41.984-57.395 74.854-71.066 12.8-5.12 20.89-0.87 24.32 12.8 0.87 2.97 2.56 9.574 5.12 19.866 2.56 10.24 4.25 16.589 5.12 19.2 0.613 2.233 0.965 4.797 0.965 7.443 0 7.772-3.038 14.835-7.992 20.065l0.013-0.013c-21.811 26.010-32.666 58.214-32.666 96.614 0 64.461 22.272 119.808 66.867 166.093s102.912 69.478 175.053 69.478c64.41 0 114.688-17.51 150.733-52.48 36.045-35.021 54.067-80.435 54.067-136.346 0-72.55-14.592-134.144-43.827-184.986-29.235-50.739-66.662-76.134-112.333-76.134-26.010 0-46.95 9.267-62.72 27.853-15.77 18.534-20.685 40.858-14.694 66.867 3.379 14.95 9.062 34.867 16.896 59.853 7.936 24.934 14.336 46.899 19.251 65.894s7.373 35.123 7.373 48.333c0 21.35-5.786 39.066-17.306 53.146-11.52 14.029-27.955 21.094-49.306 21.094-26.419 0-48.845-12.186-67.174-36.506-18.33-24.269-27.546-54.579-27.546-90.88 0-31.13 5.376-57.139 16.026-78.080l-63.334-267.52c-7.27-29.85-10.035-67.584-8.346-113.254-87.91 38.81-158.925 98.816-213.146 179.866-54.118 81.050-81.254 171.264-81.254 270.694 0 89.19 22.016 171.418 65.946 246.733 43.658 74.687 104.134 135.196 176.487 177.644l2.303 1.249c75.366 43.878 157.594 65.894 246.784 65.894s171.418-22.016 246.733-65.946c74.671-43.678 135.164-104.17 177.592-176.536l1.25-2.306c44.032-75.315 65.946-157.542 65.946-246.733z" />
<glyph unicode="&#xe91f;" glyph-name="pe-social-twitter" horiz-adv-x="1252" d="M1222.201 790.983c-33.649-48.557-73.702-89.786-119.531-123.645l-1.415-0.998c0.796-10.468 0.796-20.935 0.796-31.346 0-318.862-242.688-686.194-686.194-686.194-136.647 0-263.566 39.595-370.347 108.26 19.399-2.219 38.116-2.958 58.254-2.958 112.754 0 216.519 38.059 299.406 102.969-105.095 1.969-193.619 70.744-225.018 165.547l-0.49 1.706c14.962-2.219 29.867-3.698 45.568-3.698 21.618 0 43.292 3.015 63.431 8.249-111.083 23.070-193.365 120.134-193.365 236.416 0 0.065 0 0.13 0 0.194v-0.010 3.015c32.085-17.92 69.404-29.127 108.999-30.606-65.196 43.829-107.52 117.311-107.52 200.68 0 0.049 0 0.097 0 0.146v-0.007c0 44.828 11.947 85.902 32.882 121.742 119.488-146.288 296.254-241.892 495.576-252.345l1.689-0.071c-3.693 16.577-5.863 35.652-5.973 55.215v0.081c0 132.949 107.52 241.209 241.209 241.209 69.404 0 132.153-29.127 176.185-76.174 57.696 11.351 108.992 31.583 155.163 59.448l-2.132-1.194c-18.673-56.699-56.175-102.906-104.958-132.287l-1.083-0.605c51.462 5.987 98.399 19.142 141.94 38.543l-3.075-1.224z" />
<glyph unicode="&#xe920;" glyph-name="pe-star-empty" horiz-adv-x="1069" d="M1068.522 532.495h-408.799l-125.462 379.459-125.462-379.459h-408.799l334.358-233.517-130.182-379.459 330.084 235.119 330.084-235.164-130.449 379.459 334.625 233.561zM788.48 21.608l-254.219 181.248-254.219-181.248 101.554 292.152-257.558 178.176h312.454l97.77 294.066 97.77-294.066h312.454l-257.514-177.909 101.599-292.419z" />
<glyph unicode="&#xe921;" glyph-name="pe-star-full" horiz-adv-x="1069" d="M1068.522 532.495h-408.799l-125.462 379.459-125.462-379.459h-408.799l334.403-233.517-130.226-379.459 330.084 235.164 330.084-235.164-130.449 379.459z" />
<glyph unicode="&#xe922;" glyph-name="pe-star-half" horiz-adv-x="1069" d="M334.492 299.157l-130.404-379.414 330.173 235.253 330.218-235.253-130.449 379.414 334.492 233.561h-408.754l-125.507 379.236-125.462-379.236h-408.799l334.492-233.561zM534.261 786.136l97.77-293.933h312.454l-257.558-178.221 101.643-292.107-254.308 181.114v583.146z" />
<glyph unicode="&#xe923;" glyph-name="pe-thumbs-down" d="M187.392 329.98c-48.667 0-97.388 18.27-127.784 60.901-30.504 30.397-42.577 79.064-36.541 127.731l48.721 279.983c12.126 79.225 79.117 140.072 158.235 140.072h523.372v-486.939c-6.090 0-146.055-456.488-146.055-456.488 0-18.324-18.27-30.504-36.541-30.504-73.027 0-121.694 30.451-121.694 121.802v243.443h-261.713zM996.837 451.728h-121.694v486.939h121.694v-486.939z" />
<glyph unicode="&#xe924;" glyph-name="pe-thumbs-up" d="M831.003 573.476c48.667 0 97.388-18.324 127.784-60.901 30.451-30.451 42.577-79.117 36.541-127.838l-48.721-279.983c-12.126-79.117-79.117-140.019-158.235-140.019h-523.372v486.993c6.090 0 146.055 456.488 146.055 456.488 0 18.324 18.27 30.451 36.541 30.451 73.027 0 121.694-30.451 121.694-121.748v-243.443h261.713zM21.558 451.674h121.694v-486.939h-121.694v486.993z" />
<glyph unicode="&#xe925;" glyph-name="pe-tree" horiz-adv-x="860" d="M438.067 158.256v84.296l260.71 260.71c3.194 3.176 5.17 7.573 5.17 12.431s-1.976 9.255-5.169 12.431l-0.001 0.001c-3.174 3.181-7.563 5.149-12.411 5.149s-9.237-1.968-12.411-5.149v0l-235.889-235.889v429.752c-0.647 9.197-8.267 16.412-17.572 16.412s-16.924-7.216-17.569-16.356l-0.003-0.056v-238.264l-182.682 182.682c-3.070 2.669-7.108 4.295-11.526 4.295-9.727 0-17.613-7.886-17.613-17.613 0-4.408 1.619-8.437 4.295-11.526l-0.019 0.022 207.544-207.544v-275.743c-195.256 9.257-351.437 170.557-351.437 368.108 0 203.407 165.56 368.968 369.050 368.968 203.448 0 368.968-165.56 368.968-368.968 0-197.55-156.14-358.81-351.437-368.108zM824.648 526.405c0 222.822-181.33 404.111-404.152 404.111-222.822-0.041-404.111-181.33-404.111-404.152 0-216.924 171.909-393.953 386.54-403.251v-158.106c0.647-9.197 8.267-16.412 17.572-16.412s16.924 7.216 17.569 16.356l0.003 0.056v158.106c214.63 9.298 386.58 186.327 386.58 403.251z" />
<glyph unicode="&#xe926;" glyph-name="pe-user" d="M647.68 387.84c201.387-49.323 350.72-230.869 350.72-447.275v-25.899h-972.8v25.899c0 216.405 149.333 397.952 350.72 447.275-76.492 47.098-126.72 130.379-126.72 225.392 0 0.111 0 0.221 0 0.332v-0.017 61.44c0 145.621 117.504 263.68 262.4 263.68s262.4-118.016 262.4-263.68v-61.44c0-0.093 0-0.204 0-0.315 0-95.013-50.229-178.294-125.581-224.739l-1.139-0.654zM928-27.733c-25.6 205.952-190.379 364.8-389.803 364.8h-52.395c-199.424 0-364.16-158.848-389.803-364.8h832zM512 413.867c109.589 0.073 198.4 88.929 198.4 198.528 0 0.030 0 0.060 0 0.090v-0.005 63.573c0 0.025 0 0.055 0 0.085 0 109.599-88.811 198.455-198.393 198.528h-0.007c-109.589-0.073-198.4-88.929-198.4-198.528 0-0.030 0-0.060 0-0.090v0.005-63.573c0-0.025 0-0.055 0-0.085 0-109.599 88.811-198.455 198.393-198.528h0.007z" />
</font>
</defs>
</svg>
